<?xml version="1.0" encoding="UTF-8"?>
<svg width="134px" height="46px" viewBox="0 0 134 46" version="1.1" xmlns="http://www.w3.org/2000/svg" xmlns:xlink="http://www.w3.org/1999/xlink">
    <!-- Generator: sketchtool 57.1 (101010) - https://sketch.com -->
    <title>77790833-A04A-4A6E-A7FB-966FAFA241B3@1.00x</title>
    <desc>Created with sketchtool.</desc>
    <g id="Page-1" stroke="none" stroke-width="1" fill="none" fill-rule="evenodd">
        <g id="TextNow_Mobile_AvatarsAlt" transform="translate(-209.000000, -8250.000000)">
            <g id="Download-Floating-Footer-Apple" transform="translate(0.000000, 8242.000000)">
                <g id="App-store-Copy-2" transform="translate(209.000000, 8.000000)">
                    <path d="M9.02393931,-1.27141209e-15 L124.976061,8.17995018e-16 C128.113881,-4.75278662e-16 129.25173,0.326712242 130.398871,0.940209533 C131.546011,1.55370682 132.446293,2.45398917 133.05979,3.60112936 C133.673288,4.74826956 134,5.88611902 134,9.02393931 L134,36.9760607 C134,40.113881 133.673288,41.2517304 133.05979,42.3988706 C132.446293,43.5460108 131.546011,44.4462932 130.398871,45.0597905 C129.25173,45.6732878 128.113881,46 124.976061,46 L9.02393931,46 C5.88611902,46 4.74826956,45.6732878 3.60112936,45.0597905 C2.45398917,44.4462932 1.55370682,43.5460108 0.940209533,42.3988706 C0.326712242,41.2517304 -3.85676558e-16,40.113881 6.63782173e-16,36.9760607 L6.96469036e-16,9.02393931 C-4.04668567e-16,5.88611902 0.326712242,4.74826956 0.940209533,3.60112936 C1.55370682,2.45398917 2.45398917,1.55370682 3.60112936,0.940209533 C4.74826956,0.326712242 5.88611902,7.38727037e-16 9.02393931,-1.27141209e-15 Z" id="Rectangle-Copy-4" fill="#000000"></path>
                    <path d="M57.5731145,24.4447454 C60.1085064,24.4447564 61.7798077,26.4457239 61.7798077,29.5364828 C61.7798077,32.6358453 60.1182494,34.6271297 57.6108285,34.6271297 C56.3147646,34.6948178 55.0939432,34.0170689 54.4676646,32.8821767 L54.4202186,32.8821767 L54.4202186,37.8222222 L52.3696695,37.8222222 L52.3696695,24.5491011 L54.3545225,24.5491011 L54.3545225,26.2079741 L54.3922365,26.2079741 C55.0463382,25.0801968 56.2684761,24.4027397 57.5731145,24.4447454 Z M68.5682353,24.4447564 C71.1037045,24.4447564 72.7749616,26.4457239 72.7749616,29.5364828 C72.7749616,32.6358453 71.1134033,34.6271297 68.6059825,34.6271297 C67.3099185,34.6948178 66.0890971,34.0170689 65.4628186,32.8821767 L65.4153726,32.8821767 L65.4153726,37.8222222 L63.3648234,37.8222222 L63.3648234,24.5491011 L65.3496323,24.5491011 L65.3496323,26.2079741 L65.3873463,26.2079741 C66.0414528,25.0801975 67.2635953,24.4027443 68.5682353,24.4447564 Z M83.2895429,20.6148711 C86.1848512,20.6148711 88.1696932,22.236091 88.2365037,24.5963822 L86.1665348,24.5963822 C86.0426236,23.2311989 84.9122837,22.4071493 83.2604243,22.4071493 C81.6085648,22.4071493 80.478236,23.2408931 80.478236,24.4543845 C80.478236,25.4215225 81.2001874,25.9906151 82.9662592,26.4262694 L84.47588,26.7963449 C87.2871648,27.46011 88.4552187,28.5875655 88.4552187,30.588511 C88.4552187,33.1478194 86.413287,34.7507525 83.1655985,34.7507525 C80.1269482,34.7507525 78.0753288,33.1854725 77.942789,30.7111424 L80.0418544,30.7112415 C80.1937919,32.0678213 81.5137832,32.9585294 83.3175581,32.9585294 C85.0459269,32.9585294 86.2893979,32.0677772 86.2893979,30.8445916 C86.2893979,29.7827812 85.5394314,29.147008 83.7636607,28.7112985 L81.98789,28.2842037 C79.4718516,27.677458 78.3037977,26.5026883 78.3037977,24.5963822 C78.3037977,22.236091 80.3640457,20.6148711 83.2895429,20.6148711 Z M117.223251,24.4264586 C119.987123,24.4264586 121.725191,26.3220019 121.725191,29.3460582 L121.725191,30.0474764 L114.669499,30.0474764 L114.669499,30.1711874 C114.603623,30.9137086 114.860432,31.6487015 115.374601,32.1892078 C115.88877,32.7297141 116.610743,33.0236383 117.356872,32.9962156 C118.351961,33.0893013 119.290134,32.5188185 119.663873,31.5933792 L121.610967,31.5933902 C121.335119,33.4039441 119.569036,34.646485 117.309448,34.646485 C114.403338,34.646485 112.599552,32.7025259 112.599552,29.5838081 C112.599552,26.4554071 114.413037,24.4264586 117.223251,24.4264586 Z M100.618493,24.4264697 C103.514904,24.4264697 105.357486,26.3983546 105.357486,29.5364828 C105.357486,32.6831816 103.524603,34.646496 100.618493,34.646496 C97.7134083,34.646496 95.88057,32.6831706 95.88057,29.5364828 C95.88057,26.3983987 97.7317688,24.4264697 100.618493,24.4264697 Z M92.8806709,22.1888099 L92.8806709,24.5491011 L94.7803639,24.5491011 L94.7803639,26.170321 L92.8806709,26.170321 L92.8806709,31.6686963 C92.8806709,32.522875 93.2610442,32.9209204 94.0961266,32.9209204 C94.3216511,32.9169942 94.5468107,32.9011824 94.770665,32.8735511 L94.770665,34.4850878 C94.395211,34.5551278 94.0135936,34.5868487 93.6317077,34.5797604 C91.6091848,34.5797604 90.8204229,33.8213227 90.8204229,31.8870468 L90.8204229,26.170321 L89.3679138,26.170321 L89.3679138,24.5491011 L90.8204009,24.5491011 L90.8204009,22.1888099 L92.8806709,22.1888099 Z M111.454162,24.4447344 C111.690469,24.4439106 111.926125,24.4695325 112.156716,24.5211201 L112.156716,26.4360297 C111.858392,26.3450182 111.547189,26.3032319 111.235381,26.3123187 C110.632539,26.287902 110.049122,26.5277661 109.638318,26.96893 C109.227513,27.4100938 109.030364,28.0084821 109.098634,28.6069759 L109.098634,34.522763 L107.048085,34.522763 L107.048085,24.5491011 L109.00382,24.5491011 L109.00382,26.2466847 L109.051266,26.2466847 C109.323998,25.1538731 110.326936,24.4017622 111.454162,24.4447344 Z M46.149093,20.8429708 L51.0960538,34.522785 L48.8461543,34.522785 L47.5929956,30.8252804 L42.3701861,30.8252804 L41.115935,34.522785 L38.9037605,34.522785 L43.8507214,20.8429708 L46.149093,20.8429708 Z M25.4836074,16.3218675 L25.7755787,16.3405075 C27.5367206,16.3955202 29.1687748,17.2764068 30.1794044,18.7174331 C28.5846489,19.6962879 27.6033049,21.4225388 27.5791881,23.291391 C27.5814646,25.4057742 28.8497435,27.3139275 30.8002627,28.1375682 C30.4251345,29.3542167 29.8596804,30.503995 29.1248457,31.5443134 C28.1379914,33.0181597 27.1032828,34.4580543 25.4610118,34.4846692 C23.8652711,34.521441 23.328988,33.5470875 21.4987206,33.5470875 C19.6513065,33.5470875 19.0797038,34.4580653 17.5492288,34.521441 C15.9852217,34.5792757 14.789936,32.9483946 13.7671993,31.4883735 C11.7230388,28.5067403 10.1312923,23.085654 12.2652581,19.3969953 C13.2673362,17.5991931 15.1409715,16.4583782 17.2006553,16.3919418 C18.7660748,16.3597857 20.2197976,17.44744 21.1822559,17.44744 C22.027054,17.44744 23.5539927,16.4058371 25.1932725,16.3256335 L25.4836074,16.3218675 Z M100.618482,26.1133126 C98.9569233,26.1133126 97.9699035,27.3935066 97.9699035,29.5364828 C97.9699035,31.6977458 98.9569233,32.9585845 100.618482,32.9585845 C102.28004,32.9585845 103.268141,31.6977458 103.268141,29.5364828 C103.268141,27.3838234 102.28004,26.1133126 100.618482,26.1133126 Z M57.0321861,26.1896873 C55.4654536,26.1896873 54.4116232,27.5451875 54.4116232,29.5364828 C54.4116232,31.5460649 55.4654536,32.8918819 57.0321861,32.8918819 C58.6269449,32.8918819 59.6721468,31.5740349 59.6721468,29.5364828 C59.6721468,27.5172286 58.6269339,26.1896873 57.0321861,26.1896873 Z M68.0273401,26.1896873 C66.4606076,26.1896873 65.4067771,27.5451875 65.4067771,29.5364828 C65.4067771,31.5460649 66.4606076,32.8918819 68.0273401,32.8918819 C69.6220988,32.8918819 70.6673118,31.5740349 70.6673118,29.5364828 C70.6673118,27.5172286 69.6220878,26.1896873 68.0273401,26.1896873 Z M45.0101908,23.1182947 L44.9530791,23.1182947 L42.9111033,29.1190711 L47.0510411,29.1190711 L45.0101908,23.1182947 Z M117.223251,26.0853316 C116.548792,26.0813132 115.900668,26.3464407 115.422936,26.8217847 C114.945205,27.2971286 114.67745,27.9433021 114.679178,28.6166811 L119.67356,28.6166811 C119.710773,27.9494652 119.467509,27.2970088 119.002376,26.8164951 C118.537244,26.3359814 117.892417,26.0709781 117.223251,26.0853316 Z M114.352692,12.0629162 C115.735169,12.0629162 116.569181,13.0058959 116.569181,14.5635748 L116.569181,14.9051736 L113.060727,14.9051736 L113.060727,14.9600338 C113.02968,15.3281265 113.155598,15.6922176 113.407514,15.9627657 C113.65943,16.2333137 114.01397,16.3852153 114.38394,16.3811129 C114.863665,16.4386112 115.330645,16.2010358 115.565996,15.7797431 L116.509917,15.7797762 C116.234959,16.7154625 115.328015,17.3200199 114.357006,17.2148788 C113.694488,17.2323395 113.057771,16.958171 112.615792,16.4651165 C112.173813,15.9720621 111.971253,15.3099673 112.061857,14.6545018 C111.973659,13.9972147 112.17546,13.3340591 112.614978,12.8368392 C113.054497,12.3396193 113.688484,12.0572614 114.352692,12.0629162 Z M50.4913317,12.4161892 C51.2514961,12.8871442 51.6785282,13.7476276 51.5933319,14.6367549 C51.6801491,15.5268376 51.2535068,16.3889899 50.4926684,16.8609588 C49.7318301,17.3329277 48.7686382,17.3329277 48.0077998,16.8609588 C47.2469614,16.3889899 46.8203191,15.5268376 46.9071364,14.6367549 C46.8219401,13.7476276 47.2489721,12.8871442 48.0091365,12.4161892 C48.7693009,11.9452341 49.7311673,11.9452341 50.4913317,12.4161892 Z M91.923061,12.4161892 C92.6832254,12.8871442 93.1102575,13.7476276 93.0250612,14.6367549 C93.1118784,15.5268376 92.6852361,16.3889899 91.9243977,16.8609588 C91.1635594,17.3329277 90.2003675,17.3329277 89.4395291,16.8609588 C88.6786907,16.3889899 88.2520484,15.5268376 88.3388657,14.6367549 C88.2536694,13.7476276 88.6807015,12.8871442 89.4408658,12.4161892 C90.2010302,11.9452341 91.1628966,11.9452341 91.923061,12.4161892 Z M72.0488313,12.416102 C72.8090521,12.8870643 73.2361515,13.7475694 73.1510206,14.6367549 C73.2377276,15.5268695 72.8110072,16.3889974 72.050131,16.8609455 C71.2892549,17.3328937 70.3260502,17.3328937 69.5651741,16.8609455 C68.804298,16.3889974 68.3775775,15.5268695 68.4642845,14.6367549 C68.3791536,13.7475694 68.8062531,12.8870643 69.5664738,12.416102 C70.3266946,11.9451397 71.2886105,11.9451397 72.0488313,12.416102 Z M76.405175,12.0629273 C77.6508086,12.0629273 78.3533622,12.682033 78.3533622,13.7298641 L78.3533622,17.1191487 L77.409441,17.1191487 L77.409441,16.4220378 L77.3318613,16.4220378 C77.0112683,16.9311216 76.4411497,17.2286525 75.8394755,17.2008773 C75.4176875,17.2446794 74.9970237,17.1082986 74.68148,16.8254507 C74.3659362,16.5426029 74.1849636,16.1396874 74.1833018,15.7163123 C74.1833018,14.8234009 74.8492227,14.3086398 76.0312676,14.2354818 L77.3771115,14.1580275 L77.3771115,13.7298641 C77.3771115,13.2059485 77.030149,12.9101107 76.3599248,12.9101107 C75.8125416,12.9101107 75.4332496,13.1107473 75.3244107,13.4614564 L74.3751049,13.4614564 C74.4753152,12.6094258 75.2780792,12.0629273 76.405175,12.0629273 Z M84.2819473,10.2222222 L84.2819473,17.1191267 L83.3423403,17.1191267 L83.3423403,16.3354071 L83.2647606,16.3354071 C82.9463034,16.8910897 82.3453066,17.2244589 81.704494,17.2008773 C80.4405441,17.2009324 79.6420834,16.2079506 79.6420834,14.6367549 C79.6420834,13.0693267 80.4491616,12.0763669 81.704483,12.0763669 C82.3383577,12.0472074 82.9320402,12.3863085 83.2281169,12.9466402 L83.3013933,12.9466402 L83.3013933,10.2222222 L84.2819473,10.2222222 Z M104.101039,10.9236514 L104.101039,12.1812514 L105.1775,12.1812514 L105.1775,13.0058518 L104.101039,13.0058518 L104.101039,15.5565566 C104.101039,16.0761648 104.315473,16.3036917 104.803592,16.3036917 C104.928558,16.3032924 105.053398,16.2957487 105.1775,16.2810976 L105.1775,17.0965437 C105.001409,17.1279955 104.822996,17.1447282 104.644119,17.1465678 C103.553656,17.1465678 103.119403,16.7635815 103.119403,15.8072063 L103.119403,13.0058077 L102.330653,13.0058077 L102.330653,12.1812073 L103.119403,12.1812073 L103.119403,10.9236514 L104.101039,10.9236514 Z M44.9773883,11.4470732 C45.5774906,12.0797557 45.8617865,12.9477691 45.7520253,13.8121985 C45.7520253,15.9121458 44.6152306,17.1192369 42.6541116,17.1192369 L40.2759976,17.1192369 L40.2759976,10.5460961 L42.6541116,10.5460961 C43.5246313,10.4837274 44.377286,10.8143908 44.9773883,11.4470732 Z M53.2958482,12.1586573 L54.1858907,15.9437951 L54.2591671,15.9437951 L55.2806681,12.1586573 L56.2213564,12.1586573 L57.2428573,15.9437951 L57.320437,15.9437951 L58.2061653,12.1586573 L59.1867192,12.1586573 L57.822559,17.1191377 L56.8053723,17.1191377 L55.7784868,13.4657416 L55.7009071,13.4657416 L54.6783248,17.1191377 L53.6708259,17.1191377 L52.3012811,12.1586573 L53.2958482,12.1586573 Z M107.488803,10.2222222 L107.488803,12.9558166 L107.566383,12.9558166 C107.833435,12.3705507 108.439279,12.0151917 109.081344,12.0672125 C109.568269,12.0407598 110.041649,12.2324474 110.372547,12.5900637 C110.703445,12.9476801 110.857396,13.4339774 110.792467,13.9164991 L110.792467,17.1191377 L109.810931,17.1191377 L109.810931,14.1580054 C109.810931,13.3656822 109.441294,12.9644092 108.748483,12.9644092 C108.407345,12.9364763 108.071251,13.0602945 107.830053,13.302762 C107.588854,13.5452296 107.467146,13.8816224 107.497465,14.2220091 L107.497465,17.1191377 L106.516911,17.1191377 L106.516867,10.2222222 L107.488803,10.2222222 Z M96.8406119,12.0629052 C97.3303171,12.0261464 97.8101935,12.2137047 98.1447483,12.5726232 C98.4793031,12.9315417 98.6322307,13.422871 98.5603522,13.9078845 L98.5603522,17.1190826 L97.5797982,17.1190826 L97.5797982,14.1537202 C97.5797982,13.3565609 97.2328357,12.9601239 96.5076514,12.9601239 C96.1754918,12.9446783 95.8531398,13.0748265 95.6251061,13.3164477 C95.3970723,13.5580688 95.2860995,13.8870652 95.3212812,14.217184 L95.3212812,17.1191377 L94.3407272,17.1191377 L94.3407272,12.1586573 L95.2846485,12.1586573 L95.2846485,12.9466732 L95.3579249,12.9466732 C95.6127373,12.3664851 96.2081601,12.0115783 96.8406119,12.0629052 Z M67.1012055,10.2222222 L67.1012055,17.1191267 L66.1206516,17.1191267 L66.1206516,10.2222222 L67.1012055,10.2222222 Z M62.838482,12.0629052 C63.3281872,12.0261464 63.8080636,12.2137047 64.1426184,12.5726232 C64.4771732,12.9315417 64.6301008,13.422871 64.5582223,13.9078845 L64.5582223,17.1190826 L63.5776683,17.1190826 L63.5776683,14.1537202 C63.5776683,13.3565609 63.2307058,12.9601239 62.5055215,12.9601239 C62.173362,12.9446783 61.8510099,13.0748265 61.6229762,13.3164477 C61.3949424,13.5580688 61.2839696,13.8870652 61.3191513,14.217184 L61.3191513,17.1191377 L60.3385973,17.1191377 L60.3385973,12.1586573 L61.2825186,12.1586573 L61.2825186,12.9466732 L61.355795,12.9466732 C61.6106074,12.3664851 62.2060302,12.0115783 62.838482,12.0629052 Z M77.3771115,14.8777324 L76.1638074,14.9551868 C75.4795701,15.0009036 75.1692403,15.2332776 75.1692403,15.6705844 C75.1692403,16.1170346 75.5571498,16.3768387 76.0905751,16.3768387 C76.4063513,16.4087522 76.7215806,16.3113534 76.9641002,16.106939 C77.2066198,15.9025245 77.3556633,15.6085979 77.3771115,15.2924452 L77.3771115,14.8777324 Z M49.2518506,12.9327048 C48.3995221,12.9327048 47.9200529,13.5615047 47.9200529,14.6367659 C47.9200529,15.7206306 48.3995552,16.3445835 49.2518506,16.3445835 C50.1009571,16.3445835 50.5847627,15.7163123 50.5847627,14.6367549 C50.5847627,13.5615047 50.100935,12.9327048 49.2518506,12.9327048 Z M70.8089987,12.9327048 C69.9566703,12.9327048 69.477201,13.5615047 69.477201,14.6367659 C69.477201,15.7206306 69.9567034,16.3445835 70.8089987,16.3445835 C71.6580942,16.3445835 72.1419108,15.7163123 72.1419108,14.6367549 C72.1419108,13.5615047 71.6580832,12.9327048 70.8089987,12.9327048 Z M90.6835799,12.9327048 C89.8312514,12.9327048 89.3517822,13.5615047 89.3517822,14.6367659 C89.3517822,15.7206306 89.8312845,16.3445835 90.6835799,16.3445835 C91.5326754,16.3445835 92.016481,15.7163123 92.016481,14.6367549 C92.016481,13.5615047 91.5326644,12.9327048 90.6835799,12.9327048 Z M81.9825275,12.9558276 C81.1570998,12.9558276 80.6549668,13.5932312 80.6549668,14.6367549 C80.6549999,15.6888822 81.1517483,16.3219894 81.9825275,16.3219894 C82.8089703,16.3219894 83.3197428,15.6797498 83.3197428,14.6410622 C83.3197428,13.6072216 82.8036078,12.9558276 81.9825275,12.9558276 Z M42.5398882,11.4749861 L41.2985689,11.4749861 L41.2985689,16.1896528 L42.5398882,16.1896528 C43.1620065,16.2267794 43.7677643,15.982064 44.1889654,15.5234551 C44.6101666,15.0648462 44.8019687,14.4411686 44.7111156,13.8255941 C44.7953587,13.2125742 44.6007944,12.5940431 44.1806376,12.1391742 C43.7604808,11.6843052 43.1587004,11.4406998 42.5398882,11.4749861 Z M25.7948771,10.5342758 C25.9017022,11.926969 25.4605557,13.3063846 24.5651214,14.3795836 C23.6963811,15.4583514 22.3800538,16.0797194 20.9936858,16.0654681 C20.9055186,14.7128682 21.3595039,13.3807512 22.2556496,12.3625216 C23.1631811,11.3304983 24.4268525,10.6777282 25.7948771,10.5342758 Z M114.347274,12.8961203 C114.004661,12.8918228 113.67483,13.0258474 113.4326,13.2677918 C113.19037,13.5097362 113.056273,13.839093 113.060727,14.1811503 L115.570277,14.1811503 C115.595272,13.8444982 115.476708,13.5129623 115.243801,13.2682437 C115.010895,13.0235251 114.685308,12.8883828 114.347274,12.8961203 Z" id="Combined-Shape" fill="#FFFFFF" fill-rule="nonzero"></path>
                </g>
            </g>
        </g>
    </g>
</svg>